<?xml version="1.0" encoding="UTF-8" standalone="no"?>
<!DOCTYPE svg PUBLIC "-//W3C//DTD SVG 1.1//EN" "http://www.w3.org/Graphics/SVG/1.1/DTD/svg11.dtd">
<svg width="100%" height="100%" viewBox="0 0 160 160" version="1.1" xmlns="http://www.w3.org/2000/svg" xmlns:xlink="http://www.w3.org/1999/xlink" xml:space="preserve" xmlns:serif="http://www.serif.com/" style="fill-rule:evenodd;clip-rule:evenodd;stroke-linecap:round;stroke-linejoin:round;stroke-miterlimit:1.5;">
    <g transform="matrix(1,0,0,1,-400,-291)">
        <g transform="matrix(0.463855,0,0,0.382134,127.933735,233.240695)">
            <g>
                <path d="M925,199.3L925,521.7C925,543.942 910.124,562 891.8,562L626.2,562C607.876,562 593,543.942 593,521.7L593,199.3C593,177.058 607.876,159 626.2,159L891.8,159C910.124,159 925,177.058 925,199.3Z" style="fill:white;stroke:black;stroke-width:14.12px;"/>
            </g>
        </g>
        <g transform="matrix(0.092771,0,0,0.076427,364.926747,300.328139)">
            <path d="M913.947,159C916.879,159 919.69,160.413 921.763,162.929C923.836,165.446 925,168.858 925,172.416C925,233.766 925,487.234 925,548.584C925,552.142 923.836,555.554 921.763,558.071C919.69,560.587 916.879,562 913.947,562C863.406,562 654.594,562 604.053,562C601.121,562 598.31,560.587 596.237,558.071C594.164,555.554 593,552.142 593,548.584C593,487.234 593,233.766 593,172.416C593,168.858 594.164,165.446 596.237,162.929C598.31,160.413 601.121,159 604.053,159L913.947,159Z"/>
        </g>
        <g transform="matrix(0.092771,0,0,0.076427,409.586747,300.328139)">
            <path d="M913.947,159C916.879,159 919.69,160.413 921.763,162.929C923.836,165.446 925,168.858 925,172.416C925,233.766 925,487.234 925,548.584C925,552.142 923.836,555.554 921.763,558.071C919.69,560.587 916.879,562 913.947,562C863.406,562 654.594,562 604.053,562C601.121,562 598.31,560.587 596.237,558.071C594.164,555.554 593,552.142 593,548.584C593,487.234 593,233.766 593,172.416C593,168.858 594.164,165.446 596.237,162.929C598.31,160.413 601.121,159 604.053,159L913.947,159Z"/>
        </g>
        <g transform="matrix(0.092771,0,0,0.076427,454.246747,300.328139)">
            <path d="M913.947,159C916.879,159 919.69,160.413 921.763,162.929C923.836,165.446 925,168.858 925,172.416C925,233.766 925,487.234 925,548.584C925,552.142 923.836,555.554 921.763,558.071C919.69,560.587 916.879,562 913.947,562C863.406,562 654.594,562 604.053,562C601.121,562 598.31,560.587 596.237,558.071C594.164,555.554 593,552.142 593,548.584C593,487.234 593,233.766 593,172.416C593,168.858 594.164,165.446 596.237,162.929C598.31,160.413 601.121,159 604.053,159L913.947,159Z"/>
        </g>
        <g transform="matrix(0.092771,0,0,0.076427,364.926747,343.448139)">
            <path d="M913.947,159C916.879,159 919.69,160.413 921.763,162.929C923.836,165.446 925,168.858 925,172.416C925,233.766 925,487.234 925,548.584C925,552.142 923.836,555.554 921.763,558.071C919.69,560.587 916.879,562 913.947,562C863.406,562 654.594,562 604.053,562C601.121,562 598.31,560.587 596.237,558.071C594.164,555.554 593,552.142 593,548.584C593,487.234 593,233.766 593,172.416C593,168.858 594.164,165.446 596.237,162.929C598.31,160.413 601.121,159 604.053,159L913.947,159Z"/>
        </g>
        <g transform="matrix(0.092771,0,0,0.076427,409.586747,343.448139)">
            <path d="M913.947,159C916.879,159 919.69,160.413 921.763,162.929C923.836,165.446 925,168.858 925,172.416C925,233.766 925,487.234 925,548.584C925,552.142 923.836,555.554 921.763,558.071C919.69,560.587 916.879,562 913.947,562C863.406,562 654.594,562 604.053,562C601.121,562 598.31,560.587 596.237,558.071C594.164,555.554 593,552.142 593,548.584C593,487.234 593,233.766 593,172.416C593,168.858 594.164,165.446 596.237,162.929C598.31,160.413 601.121,159 604.053,159L913.947,159Z"/>
        </g>
        <g transform="matrix(0.092771,0,0,0.076427,454.246747,343.448139)">
            <path d="M913.947,159C916.879,159 919.69,160.413 921.763,162.929C923.836,165.446 925,168.858 925,172.416C925,233.766 925,487.234 925,548.584C925,552.142 923.836,555.554 921.763,558.071C919.69,560.587 916.879,562 913.947,562C863.406,562 654.594,562 604.053,562C601.121,562 598.31,560.587 596.237,558.071C594.164,555.554 593,552.142 593,548.584C593,487.234 593,233.766 593,172.416C593,168.858 594.164,165.446 596.237,162.929C598.31,160.413 601.121,159 604.053,159L913.947,159Z"/>
        </g>
        <g transform="matrix(0.092771,0,0,0.076427,364.926747,386.568139)">
            <path d="M913.947,159C916.879,159 919.69,160.413 921.763,162.929C923.836,165.446 925,168.858 925,172.416C925,233.766 925,487.234 925,548.584C925,552.142 923.836,555.554 921.763,558.071C919.69,560.587 916.879,562 913.947,562C863.406,562 654.594,562 604.053,562C601.121,562 598.31,560.587 596.237,558.071C594.164,555.554 593,552.142 593,548.584C593,487.234 593,233.766 593,172.416C593,168.858 594.164,165.446 596.237,162.929C598.31,160.413 601.121,159 604.053,159L913.947,159Z"/>
        </g>
        <g transform="matrix(0.092771,0,0,0.076427,409.586747,386.568139)">
            <path d="M913.947,159C916.879,159 919.69,160.413 921.763,162.929C923.836,165.446 925,168.858 925,172.416C925,233.766 925,487.234 925,548.584C925,552.142 923.836,555.554 921.763,558.071C919.69,560.587 916.879,562 913.947,562C863.406,562 654.594,562 604.053,562C601.121,562 598.31,560.587 596.237,558.071C594.164,555.554 593,552.142 593,548.584C593,487.234 593,233.766 593,172.416C593,168.858 594.164,165.446 596.237,162.929C598.31,160.413 601.121,159 604.053,159L913.947,159Z"/>
        </g>
        <g transform="matrix(0.092771,0,0,0.076427,454.246747,386.568139)">
            <path d="M913.947,159C916.879,159 919.69,160.413 921.763,162.929C923.836,165.446 925,168.858 925,172.416C925,233.766 925,487.234 925,548.584C925,552.142 923.836,555.554 921.763,558.071C919.69,560.587 916.879,562 913.947,562C863.406,562 654.594,562 604.053,562C601.121,562 598.31,560.587 596.237,558.071C594.164,555.554 593,552.142 593,548.584C593,487.234 593,233.766 593,172.416C593,168.858 594.164,165.446 596.237,162.929C598.31,160.413 601.121,159 604.053,159L913.947,159Z"/>
        </g>
    </g>
</svg>
