<?xml version="1.0" encoding="UTF-8" standalone="no"?>
<!DOCTYPE svg PUBLIC "-//W3C//DTD SVG 1.1//EN" "http://www.w3.org/Graphics/SVG/1.1/DTD/svg11.dtd">
<svg width="100%" height="100%" viewBox="0 0 124 153" version="1.1" xmlns="http://www.w3.org/2000/svg" xmlns:xlink="http://www.w3.org/1999/xlink" xml:space="preserve" xmlns:serif="http://www.serif.com/" style="fill-rule:evenodd;clip-rule:evenodd;stroke-linejoin:round;stroke-miterlimit:2;">
    <g transform="matrix(1,0,0,1,-676.359843,-331.395212)">
        <g transform="matrix(1,0,0,1,357,107)">
            <path d="M385.392,321.76C364.88,328.706 341.406,321.675 328.378,303.041C312.565,280.425 318.089,249.226 340.705,233.413C363.321,217.601 394.521,223.124 410.333,245.741C423.98,265.26 421.734,291.173 406.324,308.069L442.091,359.226C443.124,360.703 443.527,362.53 443.213,364.304C442.899,366.079 441.893,367.656 440.416,368.689L431.065,375.227C429.588,376.259 427.761,376.663 425.987,376.349C424.212,376.034 422.635,375.028 421.602,373.551L385.392,321.76ZM346.435,241.609C328.342,254.259 323.923,279.218 336.573,297.311C349.223,315.404 374.183,319.823 392.275,307.173C410.368,294.523 414.787,269.564 402.138,251.471C389.488,233.378 364.528,228.959 346.435,241.609Z"/>
        </g>
    </g>
</svg>
